<svg width="25" height="19" viewBox="0 0 25 19" fill="none" xmlns="http://www.w3.org/2000/svg">
<path d="M22.8257 0H1.22573C0.563008 0 0.0257263 0.537234 0.0257263 1.2V17.2C0.0257263 17.8627 0.562961 18.4 1.22573 18.4H22.8257C23.4884 18.4 24.0257 17.8627 24.0257 17.2V1.2C24.0257 0.537281 23.4885 0 22.8257 0ZM23.2257 17.2C23.2257 17.421 23.0466 17.6 22.8257 17.6H1.22573C1.0048 17.6 0.825742 17.421 0.825742 17.2V1.2C0.825742 0.979078 1.0048 0.800016 1.22573 0.800016H22.8257C23.0466 0.800016 23.2257 0.979078 23.2257 1.2V17.2Z" fill="white"/>
<path d="M22.0605 1.60146C21.9548 1.59222 21.8498 1.62537 21.7686 1.69362L12.5405 9.44557C12.2429 9.69574 11.8085 9.69574 11.5109 9.44557L2.28294 1.69357C2.17349 1.60169 2.0233 1.57516 1.889 1.62401C1.75471 1.67285 1.65665 1.78966 1.6318 1.93043C1.60696 2.07119 1.65908 2.21449 1.76854 2.30637L10.9965 10.0579C11.5913 10.5587 12.4602 10.5587 13.055 10.0579L22.2829 2.30641C22.3642 2.23821 22.415 2.14052 22.4242 2.03482C22.4335 1.92912 22.4003 1.82407 22.3321 1.74283C22.2639 1.66151 22.1662 1.61069 22.0605 1.60146Z" fill="white"/>
<path d="M7.71904 10.003C7.57743 9.97143 7.42986 10.019 7.3333 10.1272L1.73329 16.1272C1.63194 16.231 1.59472 16.3816 1.63607 16.5206C1.67741 16.6597 1.7908 16.7654 1.93236 16.797C2.07397 16.8286 2.22154 16.7811 2.3181 16.6728L7.91811 10.6728C8.01946 10.569 8.05668 10.4185 8.01533 10.2794C7.97399 10.1404 7.86064 10.0346 7.71904 10.003Z" fill="white"/>
<path d="M16.7182 10.1272C16.6216 10.019 16.474 9.97143 16.3324 10.003C16.1908 10.0346 16.0775 10.1404 16.0361 10.2794C15.9948 10.4185 16.032 10.569 16.1333 10.6728L21.7334 16.6728C21.8852 16.8284 22.1335 16.8342 22.2924 16.6858C22.4514 16.5375 22.4628 16.2895 22.3182 16.1272L16.7182 10.1272Z" fill="white"/>
</svg>
