<svg width="25" height="24" viewBox="0 0 25 24" fill="none" xmlns="http://www.w3.org/2000/svg">
<g clip-path="url(#clip0)">
<path d="M15.7276 0C11.2549 0 7.61595 3.63891 7.61595 8.11167C7.61595 9.10603 7.79263 10.0723 8.14147 10.9899L0.385345 18.7466C0.274486 18.8575 0.212189 19.0079 0.212189 19.1646V23.4089C0.212189 23.7353 0.476845 24 0.803329 24H4.30095C4.45756 24 4.60775 23.9379 4.71861 23.8272L5.89728 22.6503C6.00838 22.5394 6.07077 22.3889 6.07077 22.232V20.7847H7.51625C7.84274 20.7847 8.10739 20.52 8.10739 20.1935V19.6141H8.68681C9.01325 19.6141 9.27795 19.3495 9.27795 19.023V17.751H10.55C10.7067 17.751 10.857 17.6887 10.9679 17.5778L12.8486 15.6972C13.7664 16.0463 14.7328 16.2233 15.7275 16.2233C20.2003 16.2233 23.8392 12.5843 23.8392 8.11158C23.8392 3.63891 20.2004 0 15.7276 0ZM15.7276 15.041C14.76 15.041 13.8242 14.8455 12.9461 14.46C12.719 14.3604 12.4633 14.4152 12.2959 14.5784C12.2941 14.5801 12.2923 14.5815 12.2905 14.5834L10.3052 16.5687H8.68691C8.36042 16.5687 8.09577 16.8334 8.09577 17.1599V18.4319H7.51634C7.18991 18.4319 6.9252 18.6965 6.9252 19.023V19.6024H5.47967C5.15324 19.6024 4.88853 19.867 4.88853 20.1935V21.9868L4.05636 22.8177H1.39456V21.9823L8.61992 14.757C8.82772 14.5492 8.82772 14.2124 8.61992 14.0046C8.41213 13.7969 8.07538 13.7968 7.86744 14.0046L1.39456 20.4775V19.4095L9.25531 11.5482C9.25709 11.5464 9.25845 11.5448 9.26009 11.5431C9.42331 11.3758 9.47834 11.1201 9.37869 10.8928C8.99356 10.0148 8.79838 9.07898 8.79838 8.11172C8.79838 4.29084 11.9069 1.18233 15.7278 1.18233C19.5486 1.18233 22.6571 4.2908 22.6571 8.11172C22.657 11.9325 19.5484 15.041 15.7276 15.041Z" fill="white"/>
<path d="M18.1963 3.42859C16.9753 3.42859 15.982 4.42187 15.982 5.64282C15.982 6.86378 16.9753 7.85706 18.1963 7.85706C19.4172 7.85706 20.4105 6.86378 20.4105 5.64282C20.4105 4.42187 19.4173 3.42859 18.1963 3.42859ZM18.1963 6.67478C17.6272 6.67478 17.1643 6.21184 17.1643 5.64282C17.1643 5.07381 17.6272 4.61087 18.1963 4.61087C18.7653 4.61087 19.2282 5.07381 19.2282 5.64282C19.2282 6.21184 18.7653 6.67478 18.1963 6.67478Z" fill="white"/>
</g>
<defs>
<clipPath id="clip0">
<rect x="0.0257263" width="24" height="24" fill="white"/>
</clipPath>
</defs>
</svg>
