<svg id="filled_outline" height="512" viewBox="0 0 512 512" width="512" xmlns="http://www.w3.org/2000/svg" data-name="filled outline"><path d="m487.86 209.84-63.8 54.02h-329.63l138.87-138.87 84.86-84.85z" fill="#ffa100"/><path d="m24 231.862h416v240h-416z" fill="#ffc431"/><path d="m24 343.931h296v128h-296z" fill="#ffa100"/><path d="m360 407.862h48v32h-48z" fill="#ffd873"/><path d="m16 471.86182a7.99977 7.99977 0 0 0 8 8h416a7.99977 7.99977 0 0 0 8-8v-240a7.99977 7.99977 0 0 0 -8-8h-416a7.99977 7.99977 0 0 0 -8 8zm288-232v24h16v-24h112v224h-112v-24h-16v24h-272v-112h264v-16h-264v-96z"/><path d="m304 279.862h16v24h-16z"/><path d="m304 319.862h16v24h-16z"/><path d="m304 359.862h16v24h-16z"/><path d="m304 399.862h16v24h-16z"/><path d="m344 263.862h48v16h-48z"/><path d="m344 295.862h32v16h-32z"/><path d="m392 295.862h16v16h-16z"/><path d="m344 367.862h32v16h-32z"/><path d="m392 367.862h16v16h-16z"/><path d="m344 335.862h40v16h-40z"/><path d="m360 399.86182a7.99977 7.99977 0 0 0 -8 8v32a7.99977 7.99977 0 0 0 8 8h48a7.99977 7.99977 0 0 0 8-8v-32a7.99977 7.99977 0 0 0 -8-8zm40 32h-32v-16h32z"/><path d="m48 255.862h48v16h-48z"/><path d="m48 279.862h48v16h-48z"/><path d="m48 303.862h48v16h-48z"/><path d="m48 375.862h48v16h-48z"/><path d="m48 399.862h48v16h-48z"/><path d="m48 423.862h48v16h-48z"/><path d="m120 415.862h40v32h16v-32h48v32h16v-32h48v-16h-168z"/><path d="m136.00024 295.86206h28.686l-10.343 10.343 11.31348 11.31347 21.65649-21.65649h12.68679a8 8 0 0 0 8-8 8 8 0 0 0 -8-8h-12.68628l-21.657-21.657-11.31348 11.31347 10.34351 10.34351h-23.74241l-5.78907-11.57764-14.31054 7.15528 8 16a8.00032 8.00032 0 0 0 7.15551 4.4224z"/><path d="m163.95117 205.65674 63.6958-63.6958 16.97071 16.9707 11.31347-11.31348-16.9707-16.9707 79.1958-79.1958 158.3916 158.39209-16.499 16.49951 11.31347 11.31348 22.15625-22.15625a7.99913 7.99913 0 0 0 0-11.31348l-169.70557-169.70556a8 8 0 0 0 -11.31348 0l-159.86182 159.86181z"/><path d="m262.073 161.074h16v24h-16z" transform="matrix(.707 -.707 .707 .707 -43.278 241.667)"/><path d="m271.529 111.334h48v16h-48z" transform="matrix(.707 -.707 .707 .707 2.177 243.923)"/><path d="m296.5 139.619h32v16h-32z" transform="matrix(.707 -.707 .707 .707 -12.853 264.207)"/><path d="m332.784 111.334h16v16h-16z" transform="matrix(.707 -.707 .707 .707 15.428 275.916)"/><path d="m357.093 173.265h47.167v16h-47.167z" transform="matrix(.707 -.707 .707 .707 -16.676 322.27)"/><path d="m323.612 165.074h40v16h-40z" transform="matrix(.707 -.707 .707 .707 -21.74 293.663)"/></svg>